<?xml version="1.0" encoding="UTF-8"?>
<svg width="20px" height="20px" viewBox="0 0 20 20" version="1.1" xmlns="http://www.w3.org/2000/svg" xmlns:xlink="http://www.w3.org/1999/xlink">
    <title>编组 21</title>
    <g id="页面-1" stroke="none" stroke-width="1" fill="none" fill-rule="evenodd">
        <g id="05.其他涉及组件样式" transform="translate(-1495.000000, -1710.000000)">
            <g id="编组-8备份" transform="translate(1425.000000, 1710.000000)">
                <g id="编组-21" transform="translate(70.000000, 0.000000)">
                    <path d="M10,0 C15.5228475,-1.01453063e-15 20,4.4771525 20,10 C20,15.5228475 15.5228475,20 10,20 C4.4771525,20 6.76353751e-16,15.5228475 0,10 C-6.76353751e-16,4.4771525 4.4771525,1.01453063e-15 10,0 Z" id="矩形" fill="#E257FF"></path>
                    <g id="编组">
                        <rect id="矩形" x="0" y="0" width="20" height="20"></rect>
                        <rect id="矩形" x="2" y="2" width="16" height="16"></rect>
                        <path d="M12.3333333,10.75 C12.9776655,10.75 13.5,11.2723345 13.5,11.9166667 L13.5,15.7083333 C13.5,15.8694164 13.3694164,16 13.2083333,16 L3.29166667,16 C3.13058361,16 3,15.8694164 3,15.7083333 L3,11.9166667 C3,11.2723345 3.52233446,10.75 4.16666667,10.75 L12.3333333,10.75 Z M12.0416667,12.2083333 L4.45833333,12.2083333 L4.45833333,14.5416667 L12.0416667,14.5416667 L12.0416667,12.2083333 Z M15.8333333,8.41666667 C16.4776655,8.41666667 17,8.93900113 17,9.58333333 L17,13.375 C17,13.5360831 16.8694164,13.6666667 16.7083333,13.6666667 L14.9583333,13.6666667 L14.9583044,12.2083333 L15.5416667,12.2083333 L15.5416667,9.875 L11.3355416,9.87510172 C11.6596186,9.44151637 11.9046394,8.94749456 12.0468862,8.41675418 L15.8333333,8.41666667 Z M7.88032946,4.33333333 C9.42333052,4.33333333 10.7291667,5.63916948 10.7291667,7.31782946 C10.7291667,8.86083052 9.42333052,10.1666667 7.88032946,10.1666667 C6.20166948,10.1666667 4.89583333,8.86083052 4.89583333,7.31782946 C4.89583333,5.63916948 6.20166948,4.33333333 7.88032946,4.33333333 Z M7.88032946,5.79166667 C7.00708474,5.79166667 6.35416667,6.44458474 6.35416667,7.31782946 C6.35416667,8.06538863 7.01810489,8.70833333 7.88032946,8.70833333 C8.61791526,8.70833333 9.27083333,8.05541526 9.27083333,7.31782946 C9.27083333,6.45560489 8.62788863,5.79166667 7.88032946,5.79166667 Z M11.5261628,2 C13.0691639,2 14.375,3.30583615 14.375,4.98449612 C14.375,6.30790912 13.4143902,7.45685693 12.1674371,7.75707298 C12.180693,7.6233911 12.1875,7.48818579 12.1875,7.35174419 C12.1875,6.97325221 12.1432427,6.60739596 12.0601723,6.25892864 C12.5521373,6.03947385 12.9166667,5.53562032 12.9166667,4.98449612 C12.9166667,4.12227155 12.273722,3.45833333 11.5261628,3.45833333 C11.1362465,3.45833333 10.7902579,3.5885089 10.5267078,3.8103491 C10.132984,3.49212063 9.68599413,3.24458295 9.20459603,3.08433374 C9.74652254,2.41774524 10.5767083,2 11.5261628,2 Z" id="蒙版备份-3" fill="#FFFFFF"></path>
                    </g>
                </g>
            </g>
        </g>
    </g>
</svg>