<?xml version="1.0" encoding="UTF-8"?>
<svg width="100px" height="100px" viewBox="0 0 100 100" version="1.1" xmlns="http://www.w3.org/2000/svg" xmlns:xlink="http://www.w3.org/1999/xlink">
    <title>编组 7</title>
    <defs>
        <polygon id="path-1" points="0 16.677654 0 73.3111441 29.5061685 56.8082093 29.5061685 -1.48730651e-13"></polygon>
        <polygon id="path-3" points="6.71686786e-16 13.4525885 6.71686786e-16 6.35901203 11.1216573 8.52699775e-14 11.1216573 11.5394876"></polygon>
        <linearGradient x1="44.7203447%" y1="37.6674707%" x2="46.8349091%" y2="60.4471527%" id="linearGradient-5">
            <stop stop-color="#8495C7" offset="0%"></stop>
            <stop stop-color="#92A2D0" offset="100%"></stop>
        </linearGradient>
        <linearGradient x1="61.7396374%" y1="118.108875%" x2="46.1327145%" y2="10.8545133%" id="linearGradient-6">
            <stop stop-color="#CAD1E7" offset="0%"></stop>
            <stop stop-color="#A4B2D9" offset="100%"></stop>
        </linearGradient>
        <polygon id="path-7" points="0 16.677654 0 73.3111441 29.5061685 56.8082093 29.5061685 -1.48730651e-13"></polygon>
        <linearGradient x1="44.7203447%" y1="37.1290972%" x2="46.8349091%" y2="60.9032205%" id="linearGradient-9">
            <stop stop-color="#8495C7" offset="0%"></stop>
            <stop stop-color="#92A2D0" offset="100%"></stop>
        </linearGradient>
        <polygon id="path-10" points="8.32891614e-14 13.3862349 23.5951824 8.26052907e-14 47.241892 13.380634 23.5828454 26.7474665"></polygon>
        <linearGradient x1="122.471799%" y1="72.8481694%" x2="26.126253%" y2="36.8680445%" id="linearGradient-12">
            <stop stop-color="#CAD1E7" offset="0%"></stop>
            <stop stop-color="#A4B2D9" offset="100%"></stop>
        </linearGradient>
        <polygon id="path-13" points="5.88214489 0 14.6368203 3.71603352 14.6368203 4.99810711 8.57005164 8.47755455 0.0118697876 3.64493155 0 2.32558507"></polygon>
        <linearGradient x1="122.471799%" y1="81.6603498%" x2="26.126253%" y2="31.8032554%" id="linearGradient-15">
            <stop stop-color="#CAD1E7" offset="0%"></stop>
            <stop stop-color="#A4B2D9" offset="100%"></stop>
        </linearGradient>
        <polygon id="path-16" points="4.41696104 -6.59898894e-13 11.3437813 3.87805847 11.3514136 5.20334085 6.92957963 7.73937607 0.00569491676 3.82960586 0 2.47809047"></polygon>
        <polygon id="path-18" points="5.88214489 0 14.6368203 3.71603352 14.6368203 4.99810711 8.57005164 8.47755455 0.0118697876 3.64493155 0 2.32558507"></polygon>
        <polygon id="path-20" points="4.41696104 -6.59898894e-13 11.3437813 3.87805847 11.3514136 5.20334085 6.92957963 7.73937607 0.00569491676 3.82960586 0 2.47809047"></polygon>
        <linearGradient x1="49.3965127%" y1="18.6976086%" x2="49.6382165%" y2="76.5169337%" id="linearGradient-22">
            <stop stop-color="#8495C7" offset="0%"></stop>
            <stop stop-color="#92A2D0" offset="100%"></stop>
        </linearGradient>
    </defs>
    <g id="页面-1" stroke="none" stroke-width="1" fill="none" fill-rule="evenodd">
        <g id="05.其他涉及组件样式" transform="translate(-1257.000000, -2614.000000)">
            <g id="编组-7" transform="translate(1257.000000, 2614.000000)">
                <rect id="矩形" x="0" y="0" width="100" height="100"></rect>
                <g id="上市公司备份-2" transform="translate(21.000000, 5.000000)">
                    <g id="形状结合" transform="translate(29.493831, 16.688856)">
                        <mask id="mask-2" fill="white">
                            <use xlink:href="#path-1"></use>
                        </mask>
                        <use id="蒙版" fill="#E1E6F8" fill-rule="nonzero" xlink:href="#path-1"></use>
                        <polygon id="路径-38" fill="#C1CAE7" fill-rule="nonzero" mask="url(#mask-2)" transform="translate(17.304667, 62.152946) scale(-1, 1) translate(-17.304667, -62.152946) " points="-1.98516173 49.7836743 36.5944959 71.5159578 36.5944959 74.5222172 -1.98516173 52.934671"></polygon>
                        <g id="路径-35" mask="url(#mask-2)">
                            <g transform="translate(9.180333, 56.055202)">
                                <mask id="mask-4" fill="white">
                                    <use xlink:href="#path-3"></use>
                                </mask>
                                <use id="蒙版" stroke="none" fill="#F8FAFF" fill-rule="nonzero" xlink:href="#path-3"></use>
                                <polygon id="路径-35" stroke="none" fill="url(#linearGradient-5)" fill-rule="nonzero" mask="url(#mask-4)" points="13.0512568 -2.41704909 20.4188064 1.77248671 12.7208694 6.86001023 5.63885473 2.62146099"></polygon>
                            </g>
                        </g>
                    </g>
                    <g id="路径-38" transform="translate(-0.000000, 16.688856)">
                        <mask id="mask-8" fill="white">
                            <use xlink:href="#path-7"></use>
                        </mask>
                        <use id="蒙版" fill="url(#linearGradient-6)" fill-rule="nonzero" transform="translate(14.753084, 36.655572) scale(-1, 1) translate(-14.753084, -36.655572) " xlink:href="#path-7"></use>
                        <polygon fill="url(#linearGradient-9)" fill-rule="nonzero" mask="url(#mask-8)" points="-6.14454823 50.3462063 32.4351094 72.0784898 32.4351094 75.0847492 -6.14454823 53.497203"></polygon>
                    </g>
                    <g id="编组-72" transform="translate(-0.000000, -0.000000)" fill="#F8FAFF" fill-rule="nonzero">
                        <polygon id="路径-32" points="-8.06024143e-14 16.6888559 29.5061685 33.36651 59 16.6888559 29.5061685 -8.26052907e-14"></polygon>
                    </g>
                    <g id="蒙版" transform="translate(5.933225, 2.888296)">
                        <mask id="mask-11" fill="white">
                            <use xlink:href="#path-10"></use>
                        </mask>
                        <use fill="#C1CAE7" fill-rule="nonzero" xlink:href="#path-10"></use>
                        <polygon fill="#E1E6F8" fill-rule="nonzero" mask="url(#mask-11)" points="8.32891614e-14 14.6988095 23.5951824 1.31257464 47.241892 14.6932086 23.5828454 28.0600412"></polygon>
                    </g>
                    <g id="编组-73" transform="translate(27.486410, 7.951084)">
                        <g id="编组-70" transform="translate(0.000000, 0.386886)">
                            <g id="矩形" transform="translate(0.000000, 1.125064)">
                                <mask id="mask-14" fill="white">
                                    <use xlink:href="#path-13"></use>
                                </mask>
                                <use id="蒙版" fill="url(#linearGradient-12)" fill-rule="nonzero" xlink:href="#path-13"></use>
                                <polygon fill="#C2CBE8" fill-rule="nonzero" mask="url(#mask-14)" points="8.5748151 1.87510663 14.924109 1.87510663 14.924109 8.81300118 8.5748151 8.81300118"></polygon>
                            </g>
                            <polygon id="路径-35" fill="#F8FAFF" fill-rule="nonzero" points="6.06732018 0 14.6368203 4.8410975 8.57005164 8.24609533 0 3.45064905"></polygon>
                        </g>
                        <g id="编组-70备份" transform="translate(1.640472, 0.000000)">
                            <g id="矩形" transform="translate(0.000000, 0.000000)">
                                <mask id="mask-17" fill="white">
                                    <use xlink:href="#path-16"></use>
                                </mask>
                                <use id="蒙版" fill="url(#linearGradient-15)" fill-rule="nonzero" xlink:href="#path-16"></use>
                                <polygon fill="#C2CBE8" fill-rule="nonzero" mask="url(#mask-17)" points="6.93434308 1.13692816 13.283637 1.13692816 13.283637 8.07482271 6.93434308 8.07482271"></polygon>
                            </g>
                            <polygon id="路径-35" fill="#F8FAFF" fill-rule="nonzero" points="4.41696104 1.70539955e-13 11.3437813 3.87805847 6.92957963 6.38285287 0 2.47809047"></polygon>
                        </g>
                    </g>
                    <g id="编组-73" transform="translate(15.575439, 14.701468)">
                        <g id="编组-70" transform="translate(0.000000, 0.386886)">
                            <g id="矩形" transform="translate(0.000000, 1.125064)">
                                <mask id="mask-19" fill="white">
                                    <use xlink:href="#path-18"></use>
                                </mask>
                                <use id="蒙版" fill="url(#linearGradient-12)" fill-rule="nonzero" xlink:href="#path-18"></use>
                                <polygon fill="#C2CBE8" fill-rule="nonzero" mask="url(#mask-19)" points="8.5748151 1.87510663 14.924109 1.87510663 14.924109 8.81300118 8.5748151 8.81300118"></polygon>
                            </g>
                            <polygon id="路径-35" fill="#F8FAFF" fill-rule="nonzero" points="6.06732018 0 14.6368203 4.8410975 8.57005164 8.24609533 0 3.45064905"></polygon>
                        </g>
                        <g id="编组-70备份" transform="translate(1.640472, 0.000000)">
                            <g id="矩形" transform="translate(0.000000, 0.000000)">
                                <mask id="mask-21" fill="white">
                                    <use xlink:href="#path-20"></use>
                                </mask>
                                <use id="蒙版" fill="url(#linearGradient-15)" fill-rule="nonzero" xlink:href="#path-20"></use>
                                <polygon fill="#C2CBE8" fill-rule="nonzero" mask="url(#mask-21)" points="6.93434308 1.13692816 13.283637 1.13692816 13.283637 8.07482271 6.93434308 8.07482271"></polygon>
                            </g>
                            <polygon id="路径-35" fill="#F8FAFF" fill-rule="nonzero" points="4.41696104 1.70539955e-13 11.3437813 3.87805847 6.92957963 6.38285287 0 2.47809047"></polygon>
                        </g>
                    </g>
                    <path d="M6.12177579,60.2227025 L23.3267758,70.0477025 L23.3264418,75.5957025 L6.12144181,65.7717025 L6.12177579,60.2227025 Z M6.12177579,53.0977025 L23.3267758,62.9217025 L23.3267758,68.5027025 L6.12177579,58.7027025 L6.12177579,53.0977025 Z M6.12177579,45.9717025 L23.3267758,55.7967025 L23.3267758,61.3777025 L6.12177579,51.5777025 L6.12177579,45.9717025 Z M6.12177579,38.8467025 L23.3267758,48.6707025 L23.3267758,54.2517025 L6.12177579,44.4517025 L6.12177579,38.8467025 Z M6.12177579,31.7217025 L23.3267758,41.5457025 L23.3267758,47.1267025 L6.12177579,37.3267025 L6.12177579,31.7217025 Z M6.12177579,24.7067025 L23.3267758,34.5307025 L23.3267758,40.0017025 L6.12177579,30.2017025 L6.12177579,24.7067025 Z" id="形状结合" fill="url(#linearGradient-22)" fill-rule="nonzero"></path>
                    <path d="M35.2370844,70.2888102 L35.2370844,75.8320339 L32.4350844,77.4320339 L32.4351094,71.8897579 L35.2370844,70.2888102 Z M39.3970844,67.9138102 L39.3970844,73.4560339 L36.5610844,75.0750339 L36.5610844,69.5328102 L39.3970844,67.9138102 Z M43.5560844,65.5388102 L43.5560844,71.0810339 L40.7200844,72.7000339 L40.7200844,67.1578102 L43.5560844,65.5388102 Z M47.7160844,63.1628102 L47.7160844,68.7050339 L44.8800844,70.3250339 L44.8800844,64.7828102 L47.7160844,63.1628102 Z M39.3970844,60.7888102 L39.3970844,66.3748102 L36.5610844,67.9908102 L36.5610844,62.4078102 L39.3970844,60.7888102 Z M51.8750844,60.7888102 L51.8750844,66.3300339 L49.0390844,67.9500339 L49.0390844,62.4078102 L51.8750844,60.7888102 Z M43.5560844,58.4138102 L43.5560844,64.0058102 L40.7200844,65.6208102 L40.7200844,60.0328102 L43.5560844,58.4138102 Z M56.0340844,58.4138102 L56.0349012,63.9558108 L53.1980844,65.5750339 L53.1980844,60.0328102 L56.0340844,58.4138102 Z M47.7160844,56.0378102 L47.7160844,61.6358102 L44.8800844,63.2518102 L44.8800844,57.6578102 L47.7160844,56.0378102 Z M51.8750844,53.6638102 L51.8750844,59.2668102 L49.0390844,60.8828102 L49.0390844,55.2828102 L51.8750844,53.6638102 Z M39.3970844,53.6628102 L39.3970844,59.2488102 L36.5610844,60.8648102 L36.5610844,55.2828102 L39.3970844,53.6628102 Z M56.0340844,51.2888102 L56.0340844,56.8978102 L53.1980844,58.5128102 L53.1980844,52.9078102 L56.0340844,51.2888102 Z M43.5560844,51.2878102 L43.5560844,56.8798102 L40.7200844,58.4958102 L40.7200844,52.9078102 L43.5560844,51.2878102 Z M47.7160844,48.9128102 L47.7160844,54.5108102 L44.8800844,56.1258102 L44.8800844,50.5318102 L47.7160844,48.9128102 Z M51.8750844,46.5378102 L51.8750844,52.1418102 L49.0390844,53.7568102 L49.0390844,48.1568102 L51.8750844,46.5378102 Z M39.3970844,46.5378102 L39.3970844,52.1238102 L36.5610844,53.7398102 L36.5610844,48.1568102 L39.3970844,46.5378102 Z M56.0340844,44.1628102 L56.0340844,49.7728102 L53.1980844,51.3878102 L53.1980844,45.7818102 L56.0340844,44.1628102 Z M43.5560844,44.1628102 L43.5560844,49.7548102 L40.7200844,51.3698102 L40.7200844,45.7818102 L43.5560844,44.1628102 Z M47.7160844,41.7868102 L47.7160844,47.3848102 L44.8800844,49.0008102 L44.8800844,43.4068102 L47.7160844,41.7868102 Z M51.8750844,39.4128102 L51.8750844,45.0158102 L49.0390844,46.6318102 L49.0390844,41.0318102 L51.8750844,39.4128102 Z M39.3970844,39.4118102 L39.3970844,44.9978102 L36.5610844,46.6138102 L36.5610844,41.0318102 L39.3970844,39.4118102 Z M56.0340844,37.0378102 L56.0340844,42.6468102 L53.1980844,44.2618102 L53.1980844,38.6568102 L56.0340844,37.0378102 Z M43.5560844,37.0368102 L43.5560844,42.6288102 L40.7200844,44.2448102 L40.7200844,38.6568102 L43.5560844,37.0368102 Z M47.7160844,34.6618102 L47.7160844,40.2598102 L44.8800844,41.8748102 L44.8800844,36.2808102 L47.7160844,34.6618102 Z M51.8750844,32.2868102 L51.8750844,37.8908102 L49.0390844,39.5058102 L49.0390844,33.9058102 L51.8750844,32.2868102 Z M39.3970844,32.3978102 L39.3970844,37.8728102 L36.5610844,39.4888102 L36.5610844,34.0168102 L39.3970844,32.3978102 Z M56.0340844,29.9118102 L56.0340844,35.5218102 L53.1980844,37.1368102 L53.1980844,31.5308102 L56.0340844,29.9118102 Z M43.5560844,30.0228102 L43.5560844,35.5038102 L40.7200844,37.1188102 L40.7200844,31.6428102 L43.5560844,30.0228102 Z M47.7160844,27.6478102 L47.7160844,33.1338102 L44.8800844,34.7498102 L44.8800844,29.2668102 L47.7160844,27.6478102 Z M51.8750844,25.2728102 L51.8750844,30.7648102 L49.0390844,32.3808102 L49.0390844,26.8928102 L51.8750844,25.2728102 Z M56.0340844,22.8988102 L56.0340844,28.3958102 L53.1980844,30.0108102 L53.1980844,24.5178102 L56.0340844,22.8988102 Z M32.4351094,64.7643527 L35.2370844,63.1638102 L35.2370844,68.7448102 L32.4351094,70.3409444 L32.4351094,64.7643527 Z M32.4351094,57.6389475 L35.2370844,56.0388102 L35.2370844,61.6188102 L32.4351094,63.2155392 L32.4351094,57.6389475 Z M32.4351094,50.5135423 L35.2370844,48.9128102 L35.2370844,54.4938102 L32.4351094,56.090134 L32.4351094,50.5135423 Z M32.4351094,43.388137 L35.2370844,41.7878102 L35.2370844,47.3678102 L32.4351094,48.9647288 L32.4351094,43.388137 Z M32.4351094,36.3733394 L35.2370844,34.7728102 L35.2370844,40.2428102 L32.4351094,41.8393236 L32.4351094,36.3733394 Z" id="形状结合" fill="#C1CAE7" fill-rule="nonzero"></path>
                    <path d="M29.4938239,-0.428802948 L59.3732341,16.4711606 L59.3732341,73.7159595 L29.4937934,90.4276671 L-0.373234085,73.7159148 L-0.373234085,16.4655685 L29.4938239,-0.428802948 Z" id="路径-37" stroke="#474C59" stroke-width="0.74646817"></path>
                </g>
            </g>
        </g>
    </g>
</svg>