<?xml version="1.0" encoding="UTF-8"?>
<svg width="100px" height="100px" viewBox="0 0 100 100" version="1.1" xmlns="http://www.w3.org/2000/svg" xmlns:xlink="http://www.w3.org/1999/xlink">
    <title>编组 14</title>
    <defs>
        <linearGradient x1="52.3931614%" y1="118.108875%" x2="49.2116419%" y2="10.8545133%" id="linearGradient-1">
            <stop stop-color="#CAD1E7" offset="0%"></stop>
            <stop stop-color="#A4B2D9" offset="100%"></stop>
        </linearGradient>
        <linearGradient x1="70.4087149%" y1="118.108875%" x2="43.2769366%" y2="10.8545133%" id="linearGradient-2">
            <stop stop-color="#CAD1E7" offset="0%"></stop>
            <stop stop-color="#A4B2D9" offset="100%"></stop>
        </linearGradient>
        <linearGradient x1="60.102345%" y1="53.133281%" x2="33.4890038%" y2="-10.0165544%" id="linearGradient-3">
            <stop stop-color="#CAD1E7" offset="0%"></stop>
            <stop stop-color="#A4B2D9" offset="100%"></stop>
        </linearGradient>
        <linearGradient x1="47.8600424%" y1="18.6976086%" x2="48.7171207%" y2="76.5169337%" id="linearGradient-4">
            <stop stop-color="#8495C7" offset="0%"></stop>
            <stop stop-color="#92A2D0" offset="100%"></stop>
        </linearGradient>
    </defs>
    <g id="页面-1" stroke="none" stroke-width="1" fill="none" fill-rule="evenodd">
        <g id="05.其他涉及组件样式" transform="translate(-1367.000000, -2614.000000)">
            <g id="编组-14" transform="translate(1367.000000, 2614.000000)">
                <rect id="矩形" x="0" y="0" width="100" height="100"></rect>
                <g id="编组-102备份-2" transform="translate(26.000000, 9.000000)">
                    <g id="A1888-(2)" transform="translate(0.000000, 0.000000)">
                        <polygon id="路径-72" fill="#FFFFFF" fill-rule="nonzero" points="18.3609861 28.5060134 16.6726195 34.8305193 36.4234531 59.4283218 40.5392058 41.5549696 31.6247876 25.4345824"></polygon>
                        <path d="M18.8896133,24.1914124 C18.6300676,24.3540751 18.3946124,24.4126815 18.1677608,24.3924724 C16.894816,24.2710493 16.257758,21.5242953 15.7038455,20.327748 C14.9953527,18.8022975 16.858513,18.2458735 17.5318739,18.7657527 C17.7590601,19.4200224 18.0483125,20.6295372 18.3609861,21.7907187 L18.3609861,21.7907187 C18.9863335,22.2021423 19.6585233,22.5770212 20.3435948,22.9389326 C19.5261933,19.9646577 20.2475677,18.8400211 20.3670161,17.3876602 C20.4876355,16.1416005 20.6925714,15.198509 20.6070839,14.0962708 C20.7768879,14.1457831 20.9314682,14.1823279 21.1001012,14.2047264 C21.3442677,14.2418606 21.5877755,14.2644064 21.8409994,14.268385 L22.0978464,14.2660273 L22.4785748,14.2471659 C24.658743,14.0806618 27.2032882,12.9279507 29.0082858,12.1853317 C30.3667182,11.5923629 31.3995953,10.66106 32.2532998,9.53524455 C32.6737112,10.8426052 32.8903577,11.8234203 32.8903577,11.8234203 C32.5413811,13.6235462 32.8552259,13.6376926 33.4559809,15.7419655 L33.514534,15.9352993 L33.514534,15.9352993 C33.8049575,17.1330255 33.6351534,18.19754 33.6597458,19.6003886 C33.6597458,20.1344142 33.6843381,20.60596 33.7194699,21.0527496 C33.8400894,22.6736881 34.151592,23.8230809 34.0192619,25.3473525 C34.0801572,25.8330446 33.6843381,26.3399563 33.1070043,26.8126809 C32.3727481,27.4162595 31.3164498,27.9608948 30.4990483,28.2756516 C30.3304153,28.3357737 30.1617823,28.3970747 30.006031,28.4336195 C29.8502797,28.4819529 29.7167785,28.5055302 29.6102119,28.5173188 C28.9606626,28.6104054 26.5073944,28.3001167 24.0626125,27.6822456 L23.7806631,27.6095933 L23.3005275,27.4837167 C22.5024159,27.2656268 21.7205691,27.0066041 21.040377,26.7148352 C19.9231834,25.9155651 19.3587313,24.8887743 19.0214654,24.1012929 Z" id="形状结合" fill="#F8FAFF" fill-rule="nonzero"></path>
                        <path d="M44.5354026,26.3894686 C47.9244572,34.3361934 48.5135016,45.7322754 47.6363759,54.4311157 C47.2909604,57.8531871 47.3762909,61.1534675 47.6604476,64.424257 L44.3068543,66.3331563 C44.5229471,59.9468241 44.8225132,53.5484451 45.29308,47.2329697 C47.300281,40.8447037 46.6749336,32.8720438 44.5354026,26.3894686 Z" id="形状结合" fill="#E1E6F8" fill-rule="nonzero"></path>
                        <path d="M38.0641116,55.1214881 L38.1296911,54.9038403 C38.8990791,52.3999323 39.8253895,49.7981786 40.1849056,47.1504492 C40.474158,44.6689397 41.1229266,41.3787292 40.8219636,38.8500651 C40.8063953,38.7246894 40.788331,38.5752143 40.7678316,38.4074696 L40.699089,37.8552562 C40.5345832,36.5653036 40.2697732,34.7497668 39.9214166,34.009648 L39.9214166,34.009648 L36.496059,32.801312 C36.0990688,32.2319205 37.2888682,30.5261037 37.2045517,30.0911028 C37.1319459,29.7280125 36.6400996,29.219922 36.0018706,28.6858964 C36.5792044,28.2037409 37.1694199,27.7192276 37.7935961,27.2488607 C39.3194905,25.9780449 41.9274465,24.2592607 43.0095082,22.5286878 C43.5739603,23.726414 44.0903988,25.0219859 44.5354026,26.3894686 C46.6749336,32.8720438 47.300281,40.8447037 45.29308,47.2329697 L45.29308,47.2329697 C44.8225377,53.5481155 44.5229784,59.9461562 44.3068882,66.3321565 L35.8725393,71.1322878 C35.7678928,68.4305089 35.7472634,65.6564673 35.8669356,62.9103047 L35.9070146,62.0890187 L35.9070146,62.0654414 C35.9304358,61.6304404 35.9538571,61.1942606 35.9913311,60.7592597 C36.0510552,60.5659259 36.1107794,60.3714133 36.1716747,60.1662909 C36.2431095,59.974136 36.3028337,59.7560461 36.3754395,59.5497448 C36.3883212,59.5132 36.4000318,59.4648666 36.4234531,59.4283218 C36.928181,58.0608391 37.5535283,56.7310801 37.9985321,55.3400201 L38.0641116,55.1214881 L38.0641116,55.1214881 Z" id="形状结合" fill="#F8FAFF" fill-rule="nonzero"></path>
                        <path d="M36.1582203,28.8187936 C36.7191626,29.3035968 37.1379964,29.7582701 37.2045517,30.0911028 C37.2888682,30.5261037 36.0990688,32.2319205 36.496059,32.801312 L36.496059,32.801312 L39.9214166,34.009648 C40.3769599,34.9774956 40.6896335,37.7843717 40.8219636,38.8500651 C41.1229266,41.3787292 40.474158,44.6689397 40.1849056,47.1504492 C39.8253895,49.7981786 38.8990791,52.3999323 38.1296911,54.9038403 C38.0816775,55.0488406 38.0465456,55.1938409 37.9985321,55.3400201 C37.5535283,56.7310801 36.928181,58.0608391 36.4234531,59.4283218 C36.8075616,58.2294167 37.265447,56.9362025 37.5769496,55.6524192 C37.7935961,54.7576611 37.9505185,53.8758705 37.9856504,53.0164784 C38.1777046,50.186025 38.1671651,47.2577259 37.8533203,44.4390612 C37.8298991,44.1726378 37.7935961,43.9168242 37.7572932,43.6515798 C37.3485924,40.3507595 36.6998238,37.1796143 35.559209,34.0226155 C35.2816672,33.1879795 34.7652287,32.1352536 34.1164601,31.1803735 C33.98413,30.9858608 33.8518,30.8043157 33.7077593,30.6227706 C32.7943306,29.436833 31.6771371,28.4571967 30.4990483,28.2756516 C31.3164498,27.9608948 32.3727481,27.4162595 33.1070043,26.8126809 L33.1070043,26.8126809 L33.2473969,26.6938196 C33.7471363,26.2556184 34.0750826,25.7925703 34.0192619,25.3473525 C34.151592,23.8230809 33.8400894,22.6736881 33.7194699,21.0527496 C36.7841403,19.892747 41.6627864,21.1388067 42.8771782,22.2386871 C42.9251917,22.3235654 42.9732053,22.4320209 43.0095082,22.5286878 C41.9274465,24.2592607 39.3194905,25.9780449 37.7935961,27.2488607 C37.1694199,27.7192276 36.5792044,28.2037409 36.0018706,28.6858964 L36.0018706,28.6858964 Z" id="形状结合" fill="#E1E6F8" fill-rule="nonzero"></path>
                        <path d="M18.5514583,68.004798 C18.0901981,58.4598177 11.0886884,44.817672 11.0886884,44.8048518 C13.6966445,43.2805802 15.751859,41.552365 18.1677608,39.8819142 C18.2754986,40.0882154 18.8177005,41.9103971 18.9371489,42.0683649 C19.7182475,42.9383668 19.1292031,42.6353987 20.2475677,42.1650318 C20.8003092,41.8974296 21.1961283,41.6192176 21.8460679,41.5956403 C22.2184658,42.4797886 21.9292134,43.2283674 21.8085939,44.0630034 C21.6294214,45.3102419 21.6294214,45.3102419 22.6388772,45.8289423 C24.7303947,46.8698795 26.9647818,47.4982142 29.06801,48.6252086 C32.5413811,50.4276922 33.9361165,53.3795686 35.3179702,57.2745365 L35.3179702,57.2745365 L35.4737215,57.7107164 L35.4737215,57.7107164 C35.6423545,58.2070183 35.7618028,59.1618984 35.8344087,60.0932013 C35.859001,60.4315354 35.8824223,60.7592597 35.8941329,61.0622278 L35.8957431,61.2492252 L35.9070146,61.4371067 L35.9070146,62.0890187 C35.7439826,65.102037 35.7574488,68.1608657 35.8725393,71.1322878 L20.286372,80 L19.6328249,79.6117186 C19.6073975,79.2991453 19.5801004,78.9718524 19.5507856,78.628486 C19.201809,75.9536427 18.9371489,73.1243682 18.6010539,70.2809473 C18.6010539,69.6148889 18.5893433,68.9724078 18.564751,68.3322844 Z" id="形状结合" fill="#F8FAFF" fill-rule="nonzero"></path>
                        <path d="M32.8903577,11.8234203 C32.5413811,13.6235462 32.8552259,13.6376926 33.4559809,15.7419655 C33.4794021,15.8032665 33.4911128,15.8739983 33.514534,15.9352993 C33.8400894,13.1166345 33.2030314,9.66963509 32.9629636,8.49548617 C32.7334354,8.8585764 32.5062493,9.20869912 32.2532998,9.53524455 C32.6737112,10.8426052 32.8903577,11.8234203 32.8903577,11.8234203" id="Fill-382" fill="url(#linearGradient-1)" fill-rule="nonzero"></path>
                        <path d="M1.40606227,50.0681496 C2.48128558,43.5852555 7.22730525,37.0511996 15.6441213,30.4659816 C17.3199056,34.9539227 20.7805954,37.7568333 18.3609861,41.0880168 C12.6797719,44.8502476 7.02813064,47.8436252 1.40606227,50.0681496 Z" id="路径-70" fill="#E1E6F8" fill-rule="nonzero"></path>
                        <path d="M19.7217604,79.6620394 L1.90132167e-06,67.9058913 C0.0248883764,54.8052531 1.32042233,46.7752279 3.88660377,43.8158159 C4.38524197,43.259588 5.15923555,42.8345204 6.20858452,42.5406134 C13.6618132,41.6737283 18.1662052,54.047537 19.7217604,79.6620394 Z" id="形状结合" fill="url(#linearGradient-2)" fill-rule="nonzero"></path>
                        <path d="M18.8813716,30.549943 C18.8304521,30.4692563 18.7849107,30.3885696 18.7450946,30.306835 L18.7450946,30.306835 L18.7087917,30.3209813 C18.0717337,31.7721634 18.7087917,33.2846464 19.6948263,34.5672508 C20.4279113,35.522131 21.3530507,36.3449783 22.109557,36.9379471 C22.615456,37.2998585 23.1073022,37.6629487 23.6003195,38.0024616 C25.6801263,39.4536437 27.5901292,40.7244595 29.3818547,42.7332444 C31.7239796,45.3208517 33.6843381,48.6004524 34.9455723,51.8670856 C34.9935859,51.9885087 35.0415994,52.1193626 35.089613,52.254932 C35.559209,53.6707481 35.7020786,55.3152639 35.7618028,56.9609586 C35.7981058,58.0242943 35.7981058,59.1017763 35.8344087,60.0932013 C35.7618028,59.1618984 35.6423545,58.2070183 35.4737215,57.7107164 C35.4257079,57.5645372 35.3659837,57.4195369 35.3179702,57.2745365 C33.9361165,53.3795686 32.5413811,50.4276922 29.06801,48.6252086 C26.9647818,47.4982142 24.7303947,46.8698795 22.6388772,45.8289423 C21.6294214,45.3102419 21.6294214,45.3102419 21.8085939,44.0630034 C21.9292134,43.2283674 22.2184658,42.4797886 21.8460679,41.5956403 C21.1961283,41.6192176 20.8003092,41.8974296 20.2475677,42.1650318 C19.1292031,42.6353987 19.7182475,42.9383668 18.9371489,42.0683649 C18.8177005,41.9103971 18.6970811,41.7052747 18.5893433,41.4989734 C18.1080367,40.5912478 17.6630329,39.381733 17.2906351,38.5353083 C16.5212471,36.8896137 14.718982,32.9463123 15.2471311,30.8408605 C15.3806323,30.7194375 15.5117912,30.5980145 15.6441213,30.4659816 C16.4252199,28.9051652 17.3515303,27.3195926 18.396118,26.133655 L18.396118,26.133655 L18.3769419,26.0013275 L18.3769419,26.0013275 L18.3481045,25.8672317 C18.2883803,25.3721087 18.2286561,24.8887743 18.1677608,24.3924724 C18.432421,24.4160496 18.7087917,24.3323503 19.0214654,24.1012929 C19.3587313,24.8887743 19.9231834,25.9155651 21.040377,26.7148352 C21.8566075,27.0649579 22.8192208,27.3679261 23.7806631,27.6095933 C26.3160132,28.2756516 28.9356799,28.6139857 29.6102119,28.5173188 C29.7167785,28.5055302 29.8502797,28.4819529 30.006031,28.4336195 L30.006031,28.4336195 L30.0423339,28.5302863 C30.1137687,29.1232551 30.1863746,29.7162239 30.2589805,30.306835 C30.2824017,30.4530141 30.2941123,30.5980145 30.3187046,30.7559823 C30.0294522,32.8979789 21.4736701,34.313795 18.9617412,30.671104 L18.9617412,30.671104 Z" id="形状结合" fill="url(#linearGradient-3)" fill-rule="nonzero"></path>
                        <path d="M23.3602517,0.342460103 C24.2619697,0.487460422 25.1508061,0.68079418 25.9799183,0.836404279 C25.1390955,0.594737081 24.2490881,0.426159474 23.3602517,0.342460103" id="Fill-391" fill="#211410"></path>
                        <path d="M21.1001012,14.2047264 C21.4256565,14.2542387 21.7500408,14.277816 22.0978464,14.2660273 C24.3568258,14.2176939 27.0971119,12.9716342 29.0082858,12.1853317 C30.3667182,11.5923629 31.3995953,10.66106 32.2532998,9.53524455 C32.5062493,9.20869912 32.7334354,8.8585764 32.9629636,8.49548617 C33.2627556,8.00036313 33.5508369,7.47930507 33.8154971,6.94645837 C34.7172151,5.13218609 35.8226981,2.61531063 33.514534,1.59912953 C31.8082961,0.897705227 29.706239,1.40579578 28.0105406,1.20067337 C27.3980749,1.12876265 26.7130034,0.994372106 25.9799183,0.836404279 C25.1508061,0.68079418 24.2619697,0.487460422 23.3602517,0.342460103 C23.3602517,0.342460103 23.348541,0.342460103 23.3356594,0.342460103 C21.2804448,0.136158836 19.1526244,0.364858526 17.2192003,1.01912826 C15.6324107,1.53900745 14.1662405,2.36067592 12.9893228,3.46291412 L12.9530198,3.42636933 C11.6660222,4.63588418 10.535947,6.13657854 9.83916483,7.70918362 C13.0373363,10.1541484 16.7378936,13.2015128 20.6070839,14.0962708 C20.7768879,14.1457831 20.9314682,14.1823279 21.1001012,14.2047264" id="Fill-395" fill="#E1E6F8" fill-rule="nonzero"></path>
                        <path d="M15.7038455,20.327748 C14.9953527,18.8022975 16.858513,18.2458735 17.5318739,18.7657527 C17.7590601,19.4200224 18.0483125,20.6295372 18.3609861,21.7907187 C18.9863335,22.2021423 19.6585233,22.5770212 20.3435948,22.9389326 C19.5261933,19.9646577 20.2475677,18.8400211 20.3670161,17.3876602 C20.4876355,16.1416005 20.6925714,15.198509 20.6070839,14.0962708 C16.7378936,13.2015128 13.0373363,10.1541484 9.83916483,7.70918362 C8.95032844,9.69203351 8.72197127,11.7750869 9.6717029,13.4926923 C11.7620493,17.2780258 13.6369203,20.38787 15.9087814,23.5708039 L16.0176902,23.5095029 C16.4135093,24.1248701 16.7378936,24.7190178 16.9545402,25.3850762 C17.4943999,25.7234102 17.8082447,25.6019872 18.2520773,25.8813781 L18.3481045,25.8672317 C18.2883803,25.3721087 18.2286561,24.8887743 18.1677608,24.3924724 C16.894816,24.2710493 16.257758,21.5242953 15.7038455,20.327748" id="Fill-396" fill="url(#linearGradient-4)" fill-rule="nonzero"></path>
                    </g>
                    <g id="A1888-(2)备份-3" transform="translate(0.000000, 0.268954)" stroke="#474C59" stroke-width="0.979380729">
                        <path d="M17.0622332,0.286322633 C18.9201405,-0.342392232 20.9516708,-0.591541991 22.9352392,-0.452065167 L22.9352392,-0.452065167 L23.9491656,-0.352744447 C24.5376661,-0.275357278 25.1224399,-0.162831264 25.6899875,-0.0184304045 C27.0651052,0.292826025 27.588935,0.389163401 28.0693479,0.445572593 C28.6721153,0.518487144 29.3282479,0.49570924 29.9986905,0.474587552 C31.2593699,0.434870987 32.5624657,0.409331204 33.7007238,0.877262363 C34.2566239,1.12183723 34.6385341,1.43614671 34.8999794,1.79382814 C35.1976039,2.20100611 35.3428682,2.66912042 35.3712832,3.17397949 C35.437592,4.35211498 34.82099,5.75468238 34.2540684,6.89533842 C34.0124302,7.38183458 33.7517205,7.85873222 33.4804567,8.31585552 C33.7444851,9.64791662 34.3055774,12.9145467 34.0106252,15.6370232 C34.201756,16.4800385 34.1858474,17.2645332 34.1624267,18.1423437 C34.1525183,18.5137103 34.1419979,18.9028376 34.1494361,19.3314343 C34.1494361,19.5288177 34.1528963,19.7174246 34.1591635,19.8992333 C37.4055465,19.2643213 42.0068059,20.5207493 43.2059061,21.6067802 C44.0244681,23.2648062 44.546528,24.5742087 44.9970962,25.9548436 C48.4052514,33.9684593 49.0074235,45.4459811 48.1235906,54.2113396 C47.7703383,57.7110513 47.8726812,61.0821826 48.1760452,64.4252825 L48.1760452,64.4252825 L44.5490294,66.4898167 L36.1146973,71.2889578 L20.2810454,80.2974759 L19.3820458,79.7633668 L-0.490024277,67.9148914 C-0.485272397,58.7529725 0.136721182,52.0289834 1.36154672,47.7442987 C2.99898041,41.836997 7.61686095,35.8729552 15.2567562,29.8772368 C15.9241742,28.5533751 16.6946631,27.2194094 17.5495156,26.1205475 C17.4318517,25.9002316 17.306405,25.8370429 17.139759,25.7619473 C16.375801,24.8463074 16.1129564,24.3331277 15.8007707,23.8181065 C13.2226305,20.3799988 11.3404232,17.2585519 9.24316141,13.4606954 C8.26664366,11.6946469 8.4173645,9.56695132 9.27507447,7.51086107 C10.2401483,5.48472622 11.2121018,4.18874159 12.3138004,3.09421116 C13.896933,1.67554425 15.4197857,0.824412788 17.0622332,0.286322633 Z" id="形状结合"></path>
                    </g>
                </g>
            </g>
        </g>
    </g>
</svg>